<svg width="124" height="28" viewBox="0 0 124 28" fill="none" xmlns="http://www.w3.org/2000/svg">
<g clip-path="url(#clip0_1_258509)">
<path d="M94.432 12.7383H91.424C90.6992 12.7383 90.1439 12.9293 89.5696 13.6245C88.9953 14.3197 85.3207 18.7603 85.3207 18.7603V12.7383H81.1465V28.1283C81.1475 28.3599 81.2356 28.5817 81.3917 28.7454C81.5479 28.9092 81.7593 29.0016 81.9801 29.0027H85.3169V21.626L88.9966 27.6574C89.5456 28.5582 90.0895 29.0027 91.3405 29.0027H94.7685L88.9157 19.4064L94.432 12.7383Z" fill="#8F90A6"/>
<path d="M76.7857 12.7383H67.4961V27.5459C67.4961 28.3565 68.255 29.0053 69.0621 29.0053H76.7857C77.0069 29.0046 77.2189 28.9121 77.3753 28.7481C77.5317 28.584 77.6199 28.3617 77.6205 28.1297V26.0268H72.2914C72.1248 26.0251 71.9655 25.9544 71.8483 25.8302C71.731 25.706 71.6653 25.5382 71.6653 25.3634V21.9418H76.4151V18.9713H71.6653V15.7168H77.6205V13.6206C77.6199 13.3885 77.5317 13.1662 77.3753 13.0022C77.2189 12.8381 77.0069 12.7456 76.7857 12.7449" fill="#8F90A6"/>
<path d="M106.135 12.7383H96.8438V27.5459C96.8438 28.3565 97.6027 29.0053 98.4097 29.0053H106.135C106.356 29.0046 106.568 28.9121 106.724 28.748C106.88 28.5839 106.968 28.3616 106.968 28.1297V26.0268H101.639C101.473 26.0247 101.314 25.9539 101.197 25.8297C101.08 25.7055 101.014 25.538 101.014 25.3634V21.9418H105.764V18.9713H101.014V15.7168H106.968V13.6206C106.968 13.3887 106.88 13.1663 106.724 13.0022C106.568 12.8381 106.356 12.7456 106.135 12.7449" fill="#8F90A6"/>
<path d="M47.0063 12.7383H42.832V28.1283C42.8334 28.36 42.9218 28.5818 43.0781 28.7455C43.2344 28.9092 43.446 29.0016 43.6669 29.0027H47.0038L47.0063 12.7383Z" fill="#8F90A6"/>
<path d="M38.2042 12.7383H28.9121V27.5459C28.9121 28.391 29.6774 29.0053 30.4794 29.0053H38.2042C38.4252 29.0043 38.6369 28.9116 38.793 28.7476C38.9492 28.5836 39.0372 28.3615 39.0378 28.1297V26.0268H33.7062C33.5397 26.0247 33.3808 25.9539 33.2639 25.8297C33.1469 25.7055 33.0813 25.538 33.0813 25.3634V21.9418H37.8298V18.9713H33.0838V15.7168H39.0378V13.6206C39.0372 13.3888 38.9492 13.1666 38.793 13.0026C38.6369 12.8386 38.4252 12.746 38.2042 12.7449" fill="#8F90A6"/>
<path d="M24.6991 12.7383H20.5249V18.9739H16.8819V12.7383H12.041V13.3778C12.2432 13.469 12.4147 13.6217 12.5335 13.816C12.6523 14.0104 12.7129 14.2375 12.7076 14.4683V29H16.8819V21.9445H20.5299V29H24.7042L24.6991 12.7383Z" fill="#8F90A6"/>
<path d="M63.2834 12.7383V28.1283C63.2824 28.3599 63.1943 28.5817 63.0382 28.7454C62.8821 28.9092 62.6706 29.0016 62.4499 29.0027H59.8897L54.2582 19.6824C54.3359 20.2599 54.3748 20.8425 54.3746 21.4257V29.0027H51.2578V12.7383H53.2817C54.3139 12.7383 55.0652 13.1854 55.6054 14.077C56.0645 14.8332 60.3223 21.8609 60.3223 21.8609C60.3223 21.8609 60.1692 21.3819 60.1692 20.099V12.7383H63.2834Z" fill="#8F90A6"/>
<path d="M123.185 12.7383V13.3778C122.985 13.4726 122.817 13.6262 122.699 13.8198C122.582 14.0135 122.521 14.2388 122.523 14.4683V28.1257C122.523 28.3569 122.436 28.5787 122.28 28.7425C122.125 28.9064 121.914 28.9989 121.693 29H119.137L113.504 19.6797C113.582 20.2573 113.621 20.8398 113.621 21.423V29H110.504V12.7383H112.528C113.559 12.7383 114.311 13.1854 114.851 14.077C115.311 14.8332 119.567 21.8609 119.567 21.8609C119.567 21.8609 119.415 21.3819 119.415 20.099V12.7383H123.185Z" fill="#8F90A6"/>
<path d="M4.26985 18.6591C4.22703 18.7001 4.17208 18.7244 4.1142 18.728C4.05632 18.7316 3.99903 18.7142 3.95191 18.6788C3.9048 18.6433 3.87071 18.592 3.85536 18.5334C3.84002 18.4747 3.84434 18.4123 3.86761 18.3566C3.98145 17.9958 6.07743 11.2228 6.07743 11.2228L0.294195 6.81542C0.244068 6.78498 0.205419 6.73742 0.184703 6.68069C0.163987 6.62395 0.162459 6.56148 0.180375 6.50371C0.198292 6.44594 0.234567 6.39636 0.28314 6.36327C0.331713 6.33017 0.389643 6.31556 0.447251 6.32188H7.59534C7.59534 6.32188 9.69385 -0.444441 9.8039 -0.807965C9.81551 -0.867949 9.84654 -0.921877 9.89172 -0.960612C9.9369 -0.999347 9.99347 -1.02051 10.0518 -1.02051C10.1102 -1.02051 10.1667 -0.999347 10.2119 -0.960612C10.2571 -0.921877 10.2881 -0.867949 10.2997 -0.807965C10.4111 -0.445768 12.5096 6.32055 12.5096 6.32055C12.5096 6.32055 19.2934 6.32055 19.6564 6.32055C19.714 6.31424 19.7719 6.32885 19.8205 6.36194C19.8691 6.39504 19.9054 6.44461 19.9233 6.50238C19.9412 6.56016 19.9397 6.62263 19.9189 6.67936C19.8982 6.73609 19.8596 6.78365 19.8095 6.81409L16.36 9.445H12.2794L11.0144 5.37592L9.74951 9.445H5.67645L8.97917 11.9658L7.71424 16.0349L4.26985 18.6591Z" fill="#8F90A6"/>
</g>
<defs>
<clipPath id="clip0_1_258509">
<rect width="123" height="30" fill="white" transform="translate(0.18457 -1)"/>
</clipPath>
</defs>
</svg>
