<svg width="118" height="28" viewBox="0 0 118 28" fill="none" xmlns="http://www.w3.org/2000/svg">
<path d="M11.3473 -2.03535C10.9329 -1.25551 5.34631 9.26938 2.93988 13.7914C2.85648 13.9478 2.86289 14.0608 2.94437 14.214C5.30204 18.6449 10.0803 27.6334 10.1297 27.7173C10.1791 27.634 14.9573 18.6449 17.315 14.2146C17.3964 14.0615 17.4035 13.9484 17.3194 13.7921C15.9703 11.2652 14.6301 8.73312 13.2809 6.20625C13.1943 6.04472 13.1885 5.9239 13.2784 5.76109C13.6492 5.08785 14.0046 4.40622 14.3805 3.6994C14.4338 3.79049 18.0091 10.5118 19.7624 13.805C19.8362 13.9432 19.8426 14.0466 19.7669 14.1894C16.9923 19.404 14.2221 24.6213 11.4551 29.8404C11.3813 29.98 11.3063 30.0433 11.1382 30.0407C10.453 30.0291 9.76719 30.0323 9.08202 30.0388C8.95499 30.0401 8.88763 29.9994 8.82797 29.8856C6.04688 24.6406 3.26322 19.3969 0.476349 14.1552C0.41861 14.046 0.413478 13.9646 0.473142 13.8515C3.26065 8.60843 6.04367 3.36472 8.83118 -1.87705C8.86646 -1.94296 8.94922 -2.02759 9.01081 -2.02824C9.77553 -2.03922 10.5402 -2.03535 11.3473 -2.03535Z" fill="#8F90A6"/>
<path d="M14.5169 1.17545C13.2415 3.56923 9.72584 10.1827 7.80954 13.7846C7.72807 13.9384 7.72229 14.0515 7.80569 14.2072C9.15486 16.7347 10.495 19.2661 11.8442 21.793C11.9308 21.9552 11.9353 22.0753 11.8455 22.2382C11.4747 22.9114 11.1193 23.593 10.7427 24.3005C10.6926 24.2152 7.11796 17.4932 5.36077 14.1936C5.28699 14.0554 5.28122 13.952 5.35692 13.8092C8.13096 8.5952 10.9011 3.37798 13.6681 -1.84117C13.7425 -1.98138 13.8182 -2.0434 13.985 -2.04082C14.6702 -2.02919 15.356 -2.03242 16.0412 -2.03888C16.1689 -2.04017 16.2349 -1.99817 16.2952 -1.88511C19.077 3.35989 21.8606 8.6036 24.6475 13.8454C24.7059 13.9546 24.7097 14.0366 24.6501 14.149C21.8632 19.3908 19.0802 24.6345 16.2927 29.8763C16.2574 29.9422 16.1746 30.0262 16.113 30.0268C15.3483 30.0372 14.5836 30.0333 13.7823 30.0333C13.8349 29.9299 19.4241 19.3953 22.1846 14.2065C22.268 14.0502 22.2616 13.9371 22.1795 13.784C19.8218 9.35307 15.0436 0.364596 14.9942 0.28125C14.9852 0.296757 14.8101 0.624327 14.5169 1.17545Z" fill="#8F90A6"/>
<path d="M34.0931 20.8124H31.4762V9.36062C31.4762 9.21477 31.4603 9.11997 31.427 9.0733C31.3937 9.02663 31.3126 8.97704 31.1808 8.92454L30.4727 8.64743L30.6884 7.49817H37.2979C39.0024 7.49817 40.229 7.82486 40.9763 8.47825C41.7236 9.13164 42.0972 10.1861 42.0972 11.6387C42.0972 12.788 41.864 13.6733 41.3992 14.2931C40.9328 14.9144 40.2088 15.3169 39.2254 15.5022L42.452 20.8124H39.5614L36.6303 15.7997H34.0931V20.8124ZM34.0931 13.8191H37.0039C37.9091 13.8191 38.5549 13.6543 38.9416 13.3232C39.3283 12.9936 39.5223 12.4321 39.5223 11.6387C39.5223 10.8599 39.3283 10.3042 38.9416 9.97463C38.5549 9.64502 37.9091 9.47875 37.0039 9.47875H34.0931V13.8191Z" fill="#8F90A6"/>
<path d="M54.2375 7.49915V9.52056H47.3124V13.0675H52.8212V15.0087H47.3124V18.7934H54.3939V20.8149H44.6969V9.36305C44.6969 9.21721 44.681 9.12241 44.6477 9.07574C44.6144 9.02907 44.5333 8.97948 44.4015 8.92698L43.6934 8.64987L43.9091 7.50061H54.2375V7.49915Z" fill="#8F90A6"/>
<path d="M56.5593 9.36062C56.5593 9.21477 56.5433 9.11997 56.51 9.0733C56.4767 9.02663 56.3956 8.97704 56.2638 8.92454L55.5557 8.64743L55.7714 7.49817H58.7228C58.9198 7.49817 59.0472 7.52151 59.1066 7.56818C59.166 7.61485 59.2731 7.74319 59.431 7.95467L66.2186 17.2071V7.49963H68.6385V20.8124H66.1013L58.9806 11.1049V20.8124H56.5607V9.36062H56.5593Z" fill="#8F90A6"/>
<path d="M77.9817 7.49915C78.2439 7.9746 78.5262 8.54632 78.8275 9.21283C79.1287 9.87934 79.44 10.6027 79.7615 11.3816C80.083 12.1618 80.4002 12.9727 80.7159 13.8186C81.0301 14.6645 81.3285 15.5031 81.6109 16.3345C81.8933 17.1658 82.1525 17.9665 82.3885 18.7322C82.6246 19.4979 82.8215 20.1921 82.9779 20.8119H80.3423C80.1974 20.2708 80.0468 19.7414 79.8904 19.2266C79.7326 18.7117 79.582 18.2027 79.4371 17.701H73.614C73.4562 18.2027 73.3027 18.7117 73.1521 19.2266C73.0015 19.7414 72.8537 20.2708 72.7089 20.8119H70.0732C70.2311 20.1906 70.428 19.4979 70.6641 18.7322C70.9002 17.9665 71.1594 17.1672 71.4418 16.3345C71.7242 15.5017 72.0225 14.6631 72.3367 13.8186C72.651 12.9742 72.9696 12.1618 73.2911 11.3816C73.6126 10.6027 73.9239 9.87934 74.2252 9.21283C74.5264 8.54632 74.8088 7.9746 75.0709 7.49915H77.9817ZM76.5249 9.83559C75.6849 11.7374 74.9246 13.7122 74.2425 15.7598H78.8072C78.099 13.7122 77.3387 11.7389 76.5249 9.83559Z" fill="#8F90A6"/>
<path d="M84.2956 9.36062C84.2956 9.21477 84.2782 9.11997 84.2463 9.0733C84.213 9.02663 84.1319 8.97704 84.0001 8.92454L83.292 8.64743L83.5078 7.49817H86.7343C86.8516 7.49817 86.911 7.5638 86.911 7.69652V15.403C86.911 16.6704 87.1803 17.5819 87.7176 18.1376C88.2549 18.6918 89.1267 18.9689 90.3345 18.9689C91.5538 18.9689 92.43 18.6918 92.9615 18.1376C93.493 17.5834 93.758 16.6719 93.758 15.403V7.49817H96.3748V15.6014C96.3748 16.5654 96.2604 17.3909 96.0302 18.0778C95.8014 18.7647 95.4437 19.3292 94.9585 19.7711C94.4734 20.213 93.8463 20.5368 93.0802 20.7424C92.3127 20.9466 91.3989 21.0487 90.3359 21.0487C89.273 21.0487 88.3592 20.9466 87.5916 20.7424C86.8241 20.5382 86.1985 20.2144 85.7133 19.7711C85.2282 19.3292 84.8705 18.7647 84.6417 18.0778C84.4114 17.3909 84.297 16.5654 84.297 15.6014V9.36062H84.2956Z" fill="#8F90A6"/>
<path d="M99.404 9.36062C99.404 9.21477 99.388 9.11997 99.3547 9.0733C99.3214 9.02663 99.2403 8.97704 99.1086 8.92454L98.4004 8.64743L98.6162 7.49817H101.843C101.96 7.49817 102.019 7.5638 102.019 7.69652V18.791H108.058V20.8124H99.4025V9.36062H99.404Z" fill="#8F90A6"/>
<path d="M110.893 9.51959H106.604V7.49817H117.798V9.51959H113.51V20.8124H110.893V9.51959Z" fill="#8F90A6"/>
</svg>
